<?xml version="1.0" encoding="UTF-8" standalone="no"?>
<!-- Created with Inkscape (http://www.inkscape.org/) -->

<svg
   width="1080"
   height="1080"
   viewBox="0 0 1080 1080"
   version="1.1"
   id="svg1"
   xml:space="preserve"
   sodipodi:docname="logo-leaves-colored-transparent.svg"
   inkscape:version="1.3.1 (91b66b0, 2023-11-16)"
   xmlns:inkscape="http://www.inkscape.org/namespaces/inkscape"
   xmlns:sodipodi="http://sodipodi.sourceforge.net/DTD/sodipodi-0.dtd"
   xmlns="http://www.w3.org/2000/svg"
   xmlns:svg="http://www.w3.org/2000/svg"><sodipodi:namedview
     id="namedview1"
     pagecolor="#ffffff"
     bordercolor="#000000"
     borderopacity="0.25"
     inkscape:showpageshadow="2"
     inkscape:pageopacity="0.0"
     inkscape:pagecheckerboard="0"
     inkscape:deskcolor="#d1d1d1"
     inkscape:zoom="0.59722222"
     inkscape:cx="540"
     inkscape:cy="540"
     inkscape:window-width="1392"
     inkscape:window-height="842"
     inkscape:window-x="0"
     inkscape:window-y="30"
     inkscape:window-maximized="0"
     inkscape:current-layer="svg1" /><defs
     id="defs1" /><g
     id="layer1"><path
       style="fill:#502d16;fill-opacity:1;stroke-width:3.77953;-inkscape-stroke:none"
       d="m 337.91994,850.16918 c 8.74819,-10.73007 15.30449,-18.30838 18.7562,-35.56691 3.4517,-17.25852 12.65625,-58.29545 14.95738,-82.45738 2.30114,-24.16193 4.21875,-83.22443 6.51989,-109.6875 2.30114,-26.46307 5.36932,-76.32103 6.13636,-109.30398 0.76705,-32.98295 1.53409,-37.96875 0.76705,-55.6108 -0.76705,-17.64204 -2.30114,-29.14772 -1.15057,-31.44886 1.15056,-2.30114 -3.06818,-3.83523 8.05398,-23.77841 11.12216,-19.94318 6.51988,-16.10795 22.24432,-27.61364 15.72443,-11.50568 41.80397,-30.68181 48.32386,-37.58522 6.51989,-6.90341 34.13352,-40.65341 37.96875,-47.1733 3.83523,-6.51988 12.27273,-19.17613 16.10795,-20.3267 3.83523,-1.15057 11.50569,-3.45171 16.10796,-1.91762 4.60227,1.53409 16.875,6.51989 23.39489,8.4375 6.51988,1.91762 0.38352,2.30114 10.73863,1.15057 10.35512,-1.15057 49.09091,-16.10795 57.91193,-19.94318 8.82103,-3.83523 40.65341,-24.16193 43.72159,-24.16193 3.06819,0 7.67046,1.15057 6.90341,4.21875 -0.76704,3.06818 -1.91761,3.4517 -7.28693,5.75284 -5.36932,2.30114 -18.40909,9.97159 -23.77841,13.80682 -5.36932,3.83522 -26.84659,12.65625 -33.36647,15.34091 -6.51989,2.68466 -14.57387,5.36931 -20.32671,8.4375 -5.75284,3.06818 -19.17614,8.05397 -22.24432,9.20454 -3.06818,1.15057 -9.20454,0.38352 -11.12216,-0.38352 -1.91761,-0.76705 -18.79261,-6.90341 -22.62784,-8.4375 -3.83522,-1.53409 -11.12216,-2.30114 -13.80682,1.53409 -2.68465,3.83523 -22.24431,29.14773 -25.69602,35.28409 -3.4517,6.13636 -16.49148,26.07955 -18.79261,29.53125 -2.30114,3.45171 -53.69318,41.03693 -56.76137,44.48864 -3.06818,3.4517 -16.49147,24.16193 -16.875,72.86932 -0.38352,48.70738 -6.90341,121.19318 -5.36931,130.78125 1.53409,9.58806 1.53409,79.00568 2.68465,90.51136 1.15057,11.50568 5.75285,55.99432 4.9858,74.40341 -0.76705,18.40909 4.60227,37.96875 9.20455,49.85795 4.60227,11.88921 8.82102,22.62784 14.19034,31.44887 5.36932,8.82102 8.82102,11.50568 5.36932,13.42329 -3.45171,1.91762 -10.73864,1.53409 -18.02557,0.38353 -7.28694,-1.15057 -16.875,-7.28694 -21.47728,-4.60228 -4.60227,2.68466 -7.67045,3.06818 -13.80681,4.21875 -6.13637,1.15057 -18.4091,0.76704 -25.3125,0 -5.44385,-0.60487 -15.79734,0.49637 -19.57153,-0.71634 -1.77242,-0.5695 2.10616,-2.74843 2.34942,-4.37016 z"
       id="path1" /><path
       style="fill:#502d16;fill-opacity:1;stroke-width:3.77953;-inkscape-stroke:none"
       d="m 386.59091,465.21307 c 0,0 -7.67046,-5.75284 -14.19034,-17.64205 -6.51989,-11.8892 -15.72443,-23.77841 -20.32671,-38.73579 -4.60227,-14.95739 -9.58806,-27.61364 -11.12216,-35.66762 -1.53409,-8.05397 -4.60227,-11.12216 -6.13636,-6.51988 -1.53409,4.60227 0.76705,11.12216 2.30114,16.49147 1.53409,5.36932 2.68466,16.875 6.13636,25.3125 3.45171,8.4375 8.4375,21.47728 11.88921,27.23012 3.4517,5.75284 14.9549,21.35509 19.55965,29.14773 4.9858,8.4375 6.90341,12.65625 10.35512,17.25852 3.4517,4.60227 1.53409,-16.875 1.53409,-16.875 z"
       id="path2" /><path
       style="fill:#502d16;fill-opacity:1;stroke-width:3.77953;-inkscape-stroke:none"
       d="m 412.7535,376.95621 c 0,0 -7.05098,-32.00059 -10.30528,-45.01779 -3.2543,-13.01719 -9.71507,-34.1846 -13.0172,-45.01779 -7.28128,-23.88743 -17.21432,-32.87763 -24.2653,-37.2167 -7.05098,-4.33906 -23.4644,-11.59777 -27.80347,-15.93684 -4.33906,-4.33906 -9.06283,-5.97334 4.19374,-2.42125 13.25657,3.55209 7.73305,2.42689 19.18889,7.75202 11.32306,5.2634 19.46563,12.02549 24.34708,16.90694 4.88145,4.88144 7.05098,10.30527 14.10196,32.0006 7.05098,21.69532 10.30528,31.45821 14.10196,45.01779 3.79668,13.55957 8.13574,29.28868 11.39004,33.62775 3.2543,4.33906 -11.93242,10.30527 -11.93242,10.30527 z"
       id="path3" /><path
       style="fill:#502d16;fill-opacity:1;stroke-width:3.77953;-inkscape-stroke:none"
       d="m 477.83946,323.26029 c 0,0 -8.67813,-13.01719 -7.59336,-18.9834 1.08476,-5.96622 14.64434,-42.30588 18.44102,-59.11975 3.79668,-16.81388 9.22051,-26.03439 4.88145,-32.0006 -4.33907,-5.96622 -14.10196,-23.32248 -21.69532,-31.45822 -7.59337,-8.13575 -14.64434,-15.18673 -19.52579,-18.98341 -4.88145,-3.79668 0.48919,-4.10159 7.59336,0 7.10417,4.1016 17.35626,15.18673 24.40724,23.86486 7.05098,8.67813 14.64434,26.03438 14.64434,16.81387 0,-9.22051 -1.08477,-15.18672 3.79668,-29.83107 4.88145,-14.64434 14.10196,-43.93302 14.64434,-32.0006 0.54239,11.93243 -0.54238,11.39005 -3.2543,22.78009 -2.71191,11.39005 -5.42383,9.7629 -7.05097,21.15294 -1.62715,11.39004 -5.42384,28.7463 -2.71192,26.03439 2.71192,-2.71192 13.01719,-14.64435 20.61056,-21.69533 7.59336,-7.05097 13.55957,-13.01719 10.84766,-5.42383 -2.71192,7.59337 -7.05098,14.10196 -11.39005,20.06818 -4.33906,5.96621 -17.89864,13.55957 -20.06817,16.81387 -2.16953,3.2543 -7.59336,23.32247 -8.67813,28.7463 -1.08476,5.42383 -7.05098,25.49201 -8.67813,34.71252 -1.62715,9.22051 -4.88144,14.10196 -2.71191,19.52579 2.16953,5.42383 3.2543,6.50859 2.71191,10.84766 -0.54238,4.33906 -9.22051,8.13574 -9.22051,8.13574 z"
       id="path4" /><path
       style="fill:#502d16;fill-opacity:1;stroke-width:3.77953;-inkscape-stroke:none"
       d="m 606.34943,265.0142 c 0,0 8.05398,-14.19034 8.82103,-31.06534 0.76704,-16.875 2.68465,-28.7642 4.60227,-25.3125 1.91761,3.45171 4.98579,4.9858 3.83523,15.72444 -1.15057,10.73863 -3.45171,19.17613 -2.30114,23.7784 1.15057,4.60228 3.06818,9.9716 3.06818,9.9716 z"
       id="path5" /><path
       style="fill:#502d16;fill-opacity:1;stroke-width:3.77953;-inkscape-stroke:none"
       d="m 577.96875,284.19034 c 0,0 6.51989,4.9858 7.67046,6.90341 1.15056,1.91761 1.15056,1.53409 2.30113,3.4517 1.15057,1.91762 6.90341,10.73864 6.90341,10.73864 l 7.28693,-4.60227 -18.40909,-18.79262 z"
       id="path6" /><path
       style="fill:#502d16;fill-opacity:1;stroke-width:3.77953;-inkscape-stroke:none"
       d="m 635.88068,258.87784 c 0,0 0.38353,7.67046 6.51989,13.80682 6.13636,6.13636 16.49148,14.95739 19.17614,17.64204 2.68465,2.68466 5.75284,4.60228 12.65625,4.9858 6.9034,0.38352 12.65624,-3.06819 16.49147,-5.36932 3.83523,-2.30114 7.28693,-4.60227 14.57387,-8.82102 7.28693,-4.21875 18.02556,-11.88921 21.86079,-11.88921 3.83523,0 5.95823,-3.54476 10.94403,-1.62715 4.9858,1.91762 10.99055,5.70632 12.52464,8.7745 1.53409,3.06818 5.67906,1.67368 5.67906,1.67368 -3.45171,-6.51989 -11.50568,-12.27273 -15.34091,-14.95739 -3.83523,-2.68466 -9.58807,-0.38352 -6.51989,-5.36932 3.06819,-4.98579 12.75729,-12.23418 13.52434,-16.0694 0.76704,-3.83523 -8.03788,4.26797 -11.53294,7.5661 -4.47066,4.21875 -9.45646,8.54983 -10.60703,10.46744 -1.15057,1.91761 -6.34176,4.55575 -10.56051,6.85689 -4.21875,2.30114 -17.64204,10.73863 -22.62783,13.42329 -4.9858,2.68466 -14.57387,6.51989 -19.94318,5.36932 -4.05636,-0.86921 -11.88921,-8.82102 -16.87501,-15.72443 -4.98579,-6.90341 -8.82102,-12.27273 -4.60227,-18.40909 4.21875,-6.13637 -15.34091,7.67045 -15.34091,7.67045 z"
       id="path7" /><path
       style="fill:#005544;fill-opacity:1;stroke-width:3.77953;-inkscape-stroke:none"
       d="m 365.02379,240.81807 c 0,0 -2.71192,-11.93243 0,-16.27149 2.71191,-4.33906 6.50859,-15.72911 9.76289,-19.52579 3.2543,-3.79668 7.59337,-7.05098 8.13575,-3.79668 0.54238,3.2543 -1.62715,2.71192 -4.33906,8.67813 -2.71192,5.96622 -6.5086,14.64434 -5.96622,19.52579 0.54239,4.88145 1.62715,10.84766 2.71192,14.10196 1.08476,3.25429 3.25429,4.88144 0.54238,7.05098 -2.71192,2.16953 -10.84766,-9.7629 -10.84766,-9.7629 z"
       id="path8" /><path
       style="fill:#502d16;fill-opacity:1;stroke-width:3.77953;-inkscape-stroke:none"
       d="m 402.69886,333.28125 c 0,0 -7.67045,-8.82102 -20.3267,-16.49148 -12.65625,-7.67045 -17.64205,-9.20454 -19.55966,-9.58807 -1.91761,-0.38352 -2.30113,-3.83523 -2.30113,-3.83523 0,0 -2.68467,-9.97158 9.20454,-3.4517 11.8892,6.51989 14.19034,4.9858 22.24432,12.27273 8.05397,7.28693 11.50568,9.97159 11.50568,9.97159 z"
       id="path9" /><path
       style="fill:#005544;fill-opacity:1;stroke-width:1.55722;-inkscape-stroke:none"
       d="m 350.52748,420.09119 c -2.61605,-3.47068 -5.78534,-3.14047 -8.76491,-1.9691 -3.60599,1.41764 -5.56985,5.06162 -7.96111,9.44141 -2.39125,4.3798 -2.49122,7.96961 -3.65711,9.68475 -1.16589,1.71514 -1.89757,1.95223 -0.55692,1.3818 1.34065,-0.57042 6.04039,-0.657 8.1261,-0.68411 2.08571,-0.0271 7.05447,-0.66221 9.50872,-1.82362 2.26962,-1.07403 6.13528,-3.6982 5.83217,-7.67484 -0.30312,-3.97665 -0.84964,-5.95683 -2.52694,-8.35629 z"
       id="path10" /><path
       style="fill:#338000;fill-opacity:1;stroke-width:1.73744;-inkscape-stroke:none"
       d="m 336.235,390.97762 c 3.07247,-3.73625 1.83123,-7.03353 -0.27799,-9.90007 -2.55267,-3.4692 -7.08623,-4.58016 -12.54379,-5.94841 -5.45757,-1.36825 -9.41441,-0.50209 -11.61531,-1.28312 -2.2009,-0.78102 -2.66352,-1.49865 -1.667,-0.22061 0.9965,1.27804 2.39595,6.27681 3.00462,8.49829 0.60867,2.22149 2.68316,7.35907 4.63566,9.66695 1.80559,2.13426 5.75091,5.55392 10.01924,4.15219 4.26834,-1.40175 6.28396,-2.52247 8.44457,-4.96522 z"
       id="path11" /><path
       style="fill:#217821;fill-opacity:1;stroke-width:1.73744;-inkscape-stroke:none"
       d="m 332.40387,371.18015 c 4.61155,1.46057 7.20967,-0.91903 9.08487,-3.94385 2.26943,-3.66076 1.61265,-8.28202 0.85067,-13.85664 -0.762,-5.57464 -3.03904,-8.92455 -3.13356,-11.25801 -0.0945,-2.33345 0.39927,-3.02999 -0.41588,-1.62929 -0.81516,1.40068 -4.93355,4.56059 -6.76872,5.95257 -1.83518,1.39199 -5.83108,5.23009 -7.24612,7.90146 -1.3086,2.47038 -3.01356,7.40523 -0.12348,10.84484 2.8901,3.43961 4.68068,4.89308 7.75222,5.98892 z"
       id="path11-1" /><path
       style="fill:#005544;fill-opacity:1;stroke-width:1.73744;-inkscape-stroke:none"
       d="m 377.01711,206.75677 c -3.93628,2.81165 -7.14165,1.34936 -9.85834,-0.94965 -3.28784,-2.78238 -4.08836,-7.38092 -5.08284,-12.91879 -0.99445,-5.5379 0.13841,-9.42678 -0.49136,-11.67564 -0.62979,-2.24884 -1.31431,-2.75915 -0.10689,-1.67813 1.20742,1.08099 6.09961,2.81667 8.27462,3.57479 2.17503,0.75814 7.15988,3.17672 9.32983,5.28145 2.00671,1.94636 5.15055,6.1148 3.46221,10.27808 -1.68838,4.16329 -2.9434,6.09815 -5.52723,8.08789 z"
       id="path12" /><path
       style="fill:#008000;fill-opacity:1;stroke-width:2.39718;-inkscape-stroke:none"
       d="m 382.42308,208.03696 c 7.41553,11.19205 21.99548,1.56981 32.06671,-7.43156 5.74273,-5.13274 7.1744,-8.14674 9.82735,-10.10315 2.65297,-1.95638 4.02428,-2.09366 1.464,-1.66545 -2.56028,0.4282 -10.8664,-0.5565 -14.54863,-1.00821 -3.68224,-0.45172 -12.65395,-0.78649 -17.38191,0.14965 -4.37226,0.86568 -11.01243,6.2205 -11.86963,11.45838 -0.85715,5.2379 -1.67218,5.09097 0.44211,8.60034 z m -6.46221,0.0129 c 3.39267,5.12046 9.49583,6.38046 15.15231,5.55404 13.94567,-2.03751 24.97144,-21.78324 26.74175,-23.08875 2.65297,-1.95638 4.02428,-2.09366 1.464,-1.66545 -2.56028,0.4282 -10.8664,-0.5565 -14.54863,-1.00821 -3.68224,-0.45172 -6.41655,0.70506 -11.14451,1.6412 -4.37226,0.86568 -12.23279,9.4748 -13.08999,14.71268 -0.85715,5.2379 -6.68922,0.34512 -4.57493,3.85449 z"
       id="path13" /><path
       style="fill:#005544;fill-opacity:1;stroke-width:1.73744;-inkscape-stroke:none"
       d="m 357.48712,303.0845 c 4.61155,1.46057 7.20967,-0.91903 9.08487,-3.94385 2.26943,-3.66076 1.61265,-8.28202 0.85067,-13.85664 -0.762,-5.57464 -3.03904,-8.92455 -3.13356,-11.25801 -0.0945,-2.33345 0.39927,-3.02999 -0.41588,-1.62929 -0.81516,1.40068 -4.93355,4.56059 -6.76872,5.95257 -1.83518,1.39199 -5.83108,5.23009 -7.24612,7.90146 -1.3086,2.47038 -3.01356,7.40523 -0.12348,10.84484 2.8901,3.43961 4.68068,4.89308 7.75222,5.98892 z"
       id="path15" /><path
       style="fill:#005544;fill-opacity:1;stroke-width:1.73744;-inkscape-stroke:none"
       d="m 362.77118,302.53142 c 1.51139,-4.59515 -0.83938,-7.21938 -3.84331,-9.12786 -3.63548,-2.30971 -8.26371,-1.70399 -13.8464,-1.0036 -5.58272,0.7004 -8.95756,2.94032 -11.29192,3.00907 -2.33435,0.0687 -3.0254,-0.4327 -1.63378,0.39787 1.39159,0.83057 4.50584,4.9836 5.87747,6.83403 1.37165,1.85043 5.1654,5.88846 7.82098,7.33291 2.45578,1.33579 7.37151,3.09513 10.84282,0.2432 3.47131,-2.85195 4.94446,-4.62637 6.07414,-7.68562 z"
       id="path11-1-8" /><path
       style="fill:#bcd35f;fill-opacity:1;stroke-width:2.39718;-inkscape-stroke:none"
       d="m 336.08023,234.14102 c -3.47759,-5.06317 -9.17835,-5.27896 -14.82026,-4.35832 -6.82806,1.1142 -11.48884,5.46894 -17.14519,10.69669 -5.65633,5.2278 -7.0104,9.89218 -9.63036,11.89256 -2.61997,2.00035 -3.9888,2.16048 -1.43602,1.68963 2.55278,-0.47084 10.87417,0.37521 14.56342,0.76545 3.68926,0.39025 12.66531,0.57535 17.377,-0.43951 4.35721,-0.93847 12.03926,-3.57426 12.80899,-8.82571 0.76968,-5.25146 0.45494,-7.94717 -1.71758,-11.42079 z m 6.4611,-0.12067 c -3.47759,-5.06317 -9.17835,-5.27896 -14.82027,-4.35832 -6.82805,1.1142 -11.48884,5.46895 -17.14518,10.69669 -5.65634,5.2278 -7.01041,9.89218 -9.63036,11.89256 -2.61998,2.00035 -3.98881,2.16048 -1.43602,1.68964 2.55278,-0.47084 10.87417,0.3752 14.56342,0.76544 3.68926,0.39025 12.6653,0.57535 17.37699,-0.4395 4.35722,-0.93848 12.03927,-3.57427 12.809,-8.82572 0.76968,-5.25146 0.45494,-7.94717 -1.71758,-11.42079 z"
       id="path16" /><path
       style="fill:#005544;fill-opacity:1;stroke-width:1.73744;-inkscape-stroke:none"
       d="m 534.18516,186.14728 c -4.74497,-0.94072 -5.87605,-4.2774 -6.06284,-7.83142 -0.22604,-4.3012 2.57502,-8.03502 5.92738,-12.55373 3.35239,-4.51871 6.96122,-6.35805 8.16778,-8.3576 1.20653,-1.99955 1.10922,-2.84779 1.14909,-1.22765 0.0399,1.62013 2.12757,6.37278 3.0656,8.47648 0.93803,2.10372 2.59177,7.39176 2.54548,10.41442 -0.0428,2.79524 -0.92502,7.94124 -5.11431,9.56397 -4.18932,1.62273 -6.45854,2.03427 -9.67818,1.51553 z"
       id="path17" /><path
       style="fill:#217821;fill-opacity:1;stroke-width:1.73744;-inkscape-stroke:none"
       d="m 534.15957,188.54175 c 0.88828,-4.75507 4.21225,-5.92292 7.76399,-6.14892 4.29845,-0.27353 8.06297,2.48613 12.61841,5.78841 4.55545,3.30229 6.43451,6.89059 8.44727,8.07499 2.01276,1.18436 2.85986,1.07773 1.24025,1.13548 -1.61958,0.0578 -6.3489,2.1978 -8.44212,3.15901 -2.09323,0.96118 -7.36269,2.6732 -10.38566,2.66029 -2.79554,-0.0119 -7.95098,-0.83728 -9.61987,-5.00841 -1.66888,-4.17114 -2.10545,-6.43569 -1.62227,-9.66085 z"
       id="path18" /><path
       style="fill:#005544;fill-opacity:1;stroke-width:1.41478;-inkscape-stroke:none"
       d="m 510.70677,152.04422 c -2.44547,2.21592 -5.716,1.1751 -8.8492,-0.51064 -3.79187,-2.04018 -6.05194,-5.51051 -8.8,-9.68908 -2.74805,-4.17861 -3.09421,-7.15186 -4.40554,-8.84394 -1.31133,-1.69205 -2.07728,-2.06449 -0.66457,-1.27035 1.41291,0.79376 6.23518,2.00641 8.37459,2.53512 2.13942,0.5287 7.27484,2.25692 9.86898,3.80694 2.39894,1.43341 6.53888,4.52776 6.4982,7.72092 -0.0407,3.19318 -0.46636,4.68717 -2.02246,6.25103 z"
       id="path19" /><path
       style="fill:#005544;fill-opacity:1;stroke-width:1.41478;-inkscape-stroke:none"
       d="m 514.79176,151.75164 c 0.27517,-3.28861 3.37599,-4.75986 6.81656,-5.66601 4.16391,-1.0966 8.18421,-0.10247 13.04454,1.07629 4.86035,1.17879 7.14249,3.11576 9.25575,3.4576 2.11324,0.34183 2.92727,0.0913 1.35272,0.47499 -1.57444,0.38408 -5.92673,2.78874 -7.85129,3.86236 -1.92456,1.07364 -6.8576,3.31518 -9.81154,3.95264 -2.73168,0.58947 -7.86943,1.1531 -10.0189,-1.20861 -2.14948,-2.36174 -2.85795,-3.74423 -2.78784,-5.94926 z"
       id="path20" /><path
       style="fill:#338000;fill-opacity:1;stroke-width:1.52962;-inkscape-stroke:none"
       d="m 517.24112,146.01688 c 3.47003,0.53688 6.26683,-2.32916 8.6291,-5.69119 2.85884,-4.06887 3.52472,-8.51173 4.35328,-13.87714 0.82854,-5.36545 -0.19385,-8.23136 0.34053,-10.52147 0.53439,-2.29008 1.13015,-3.07647 0.0807,-1.53009 -1.04979,1.54615 -5.32185,5.48381 -7.22143,7.22244 -1.89961,1.73864 -6.24794,6.32298 -8.13273,9.24469 -1.74295,2.70189 -4.46503,7.92015 -2.95388,10.75409 1.51119,2.83395 2.62553,3.91935 4.90441,4.39867 z"
       id="path21" /><path
       style="fill:#abc837;fill-opacity:1;stroke-width:1.73744;-inkscape-stroke:none"
       d="m 482.72551,196.25934 c 0.59517,4.80057 -2.2183,6.92121 -5.53436,8.21341 -4.0132,1.56383 -8.43721,0.0754 -13.77943,-1.69035 -5.34222,-1.76575 -8.22075,-4.61547 -10.49785,-5.13392 -2.2771,-0.51841 -3.052,-0.15993 -1.52614,-0.706 1.52584,-0.54609 5.38376,-4.01921 7.08704,-5.56979 1.7033,-1.55058 6.20569,-4.77961 9.09032,-5.68381 2.66758,-0.83617 7.83059,-1.61268 10.68552,1.85615 2.85494,3.46885 3.95752,5.49445 4.4749,8.71431 z"
       id="path22" /><path
       style="fill:#005544;fill-opacity:1;stroke-width:1.52962;-inkscape-stroke:none"
       d="m 463.93146,166.34358 c 3.47003,0.53688 6.26683,-2.32916 8.6291,-5.69119 2.85884,-4.06887 3.52472,-8.51173 4.35328,-13.87714 0.82854,-5.36545 -0.19385,-8.23136 0.34053,-10.52147 0.53439,-2.29008 1.13015,-3.07647 0.0807,-1.53009 -1.04979,1.54615 -5.32185,5.48381 -7.22143,7.22244 -1.89961,1.73864 -6.24794,6.32298 -8.13273,9.24469 -1.74295,2.70189 -4.46503,7.92015 -2.95388,10.75409 1.51119,2.83395 2.62553,3.91935 4.90441,4.39867 z"
       id="path23" /><path
       style="fill:#005544;fill-opacity:1;stroke-width:1.52962;-inkscape-stroke:none"
       d="m 623.93446,215.15805 c 3.47003,0.53688 6.26683,-2.32916 8.6291,-5.69119 2.85884,-4.06887 3.52472,-8.51173 4.35328,-13.87714 0.82854,-5.36545 -0.19385,-8.23136 0.34053,-10.52147 0.53439,-2.29008 1.13015,-3.07647 0.0807,-1.53009 -1.04979,1.54615 -5.32185,5.48381 -7.22143,7.22244 -1.89961,1.73864 -6.24794,6.32298 -8.13273,9.24469 -1.74295,2.70189 -4.46503,7.92015 -2.95388,10.75409 1.51119,2.83395 2.62553,3.91935 4.90441,4.39867 z"
       id="path24" /><path
       style="fill:#338000;fill-opacity:1;stroke-width:1.52962;-inkscape-stroke:none"
       d="m 616.84286,221.66665 c -3.47003,0.53688 -6.26683,-2.32916 -8.6291,-5.69119 -2.85884,-4.06887 -3.52472,-8.51173 -4.35328,-13.87714 -0.82854,-5.36545 0.19385,-8.23136 -0.34053,-10.52147 -0.53439,-2.29008 -1.13015,-3.07647 -0.0807,-1.53009 1.04979,1.54615 5.32185,5.48381 7.22143,7.22244 1.89961,1.73864 6.24794,6.32298 8.13273,9.24469 1.74295,2.70189 4.46503,7.92015 2.95388,10.75409 -1.51119,2.83395 -2.62553,3.91935 -4.90441,4.39867 z"
       id="path25" /><path
       style="fill:#bcd35f;fill-opacity:1;stroke-width:1.46963;-inkscape-stroke:none"
       d="m 598.19909,302.93822 c -0.85414,4.04778 1.29038,6.25569 3.91008,7.81963 3.17049,1.89273 6.91059,1.21622 11.42452,0.42652 4.51396,-0.78971 7.09103,-2.84796 8.9972,-2.98313 1.90619,-0.13517 2.51405,0.27892 1.3049,-0.39898 -1.20911,-0.6779 -4.10663,-4.19163 -5.38458,-5.75773 -1.27797,-1.56611 -4.72241,-4.95783 -7.01807,-6.12918 -2.12292,-1.08323 -6.29601,-2.45568 -8.90097,0.13831 -2.60495,2.59397 -3.66333,4.18573 -4.33308,6.88456 z"
       id="path26" /><path
       style="fill:#005544;fill-opacity:1;stroke-width:1.68576;-inkscape-stroke:none"
       d="m 598.20202,304.1299 c -3.88866,-1.85722 -6.37464,0.5307 -8.2894,3.65613 -2.3173,3.78255 -2.1702,8.77974 -2.01918,14.80591 0.15103,6.02621 1.82886,9.76226 1.69627,12.27055 -0.13259,2.50833 -0.62758,3.22411 0.21268,1.77346 0.84024,-1.45061 4.72448,-4.57942 6.45383,-5.95637 1.72936,-1.37697 5.56923,-5.24076 7.04995,-8.01622 1.36933,-2.56662 3.3116,-7.75109 1.10717,-11.622 -2.2044,-3.8709 -3.6326,-5.54253 -6.21132,-6.91146 z"
       id="path27" /><path
       style="fill:#008000;fill-opacity:1;stroke-width:1.52933;-inkscape-stroke:none"
       d="m 676.77726,234.73396 c 3.69183,-2.14872 5.08111,-6.05674 5.80192,-9.97852 0.87227,-4.74626 -0.60528,-8.15746 -2.36547,-12.2946 -1.76023,-4.13716 -4.15003,-5.29034 -4.72251,-7.18654 -0.57243,-1.8962 -0.36107,-2.84469 -0.65593,-1.06758 -0.29529,1.77718 -2.62905,7.45622 -3.67266,9.97333 -1.04364,2.51714 -3.14191,8.6778 -3.60198,11.96471 -0.42542,3.03959 -0.60965,8.44544 2.24842,9.22498 2.8581,0.77952 4.48269,0.69179 6.96818,-0.63575 z"
       id="path28" /><path
       style="fill:#005544;fill-opacity:1;stroke-width:1.73744;-inkscape-stroke:none"
       d="m 673.20925,237.98959 c -2.14952,4.33349 -0.19585,7.26536 2.50613,9.58164 3.27006,2.80325 7.93739,2.8619 13.56295,2.96257 5.62557,0.10066 9.28466,-1.63654 11.60507,-1.37262 2.32041,0.26392 2.93312,0.85856 1.67377,-0.16147 -1.25934,-1.02004 -3.75131,-5.57375 -4.84585,-7.60043 -1.09453,-2.02669 -4.27546,-6.56321 -6.69863,-8.37064 -2.24085,-1.67146 -6.85641,-4.11201 -10.69802,-1.78274 -3.84162,2.32929 -5.55214,3.87618 -7.10542,6.74369 z"
       id="path29" /><path
       style="fill:#005544;fill-opacity:1;stroke-width:1.73744;-inkscape-stroke:none"
       d="m 736.98658,248.92308 c 1.70087,4.52843 5.17719,5.10104 8.71419,4.70657 4.2806,-0.47742 7.50844,-3.84913 11.42089,-7.8926 3.91246,-4.04351 5.13956,-7.90369 6.91593,-9.41977 1.77638,-1.51605 2.62914,-1.55817 1.02413,-1.33367 -1.60499,0.22447 -6.63418,-1.06138 -8.86255,-1.6443 -2.22839,-0.58293 -7.71515,-1.35344 -10.68992,-0.81553 -2.75096,0.49741 -7.6846,2.20588 -8.60345,6.60351 -0.91884,4.39765 -0.95536,6.7036 0.0808,9.79579 z"
       id="path30" /><path
       style="fill:#338000;fill-opacity:1;stroke-width:1.73744;-inkscape-stroke:none"
       d="m 736.98658,248.92308 c 1.70087,4.52843 5.17719,5.10104 8.71419,4.70657 4.2806,-0.47742 7.50844,-3.84913 11.42089,-7.8926 3.91246,-4.04351 5.13956,-7.90369 6.91593,-9.41977 1.77638,-1.51605 2.62914,-1.55817 1.02413,-1.33367 -1.60499,0.22447 -6.63418,-1.06138 -8.86255,-1.6443 -2.22839,-0.58293 -7.71515,-1.35344 -10.68992,-0.81553 -2.75096,0.49741 -7.6846,2.20588 -8.60345,6.60351 -0.91884,4.39765 -0.95536,6.7036 0.0808,9.79579 z"
       id="path31" /><path
       style="fill:#005544;fill-opacity:1;stroke-width:0.92151;-inkscape-stroke:none"
       d="m 753.01054,277.61145 c 2.31918,1.09724 2.46968,2.9598 2.10636,4.8121 -0.43972,2.24171 -2.36319,3.80029 -4.67172,5.69132 -2.30853,1.89104 -4.40263,2.3707 -5.28174,3.24329 -0.87909,0.87258 -0.93869,1.32149 -0.74979,0.48292 0.1889,-0.83854 -0.27064,-3.55313 -0.48122,-4.75649 -0.21059,-1.20339 -0.37771,-4.13727 0.0368,-5.68611 0.38332,-1.43231 1.50232,-3.96532 3.867,-4.25852 2.3647,-0.29319 3.58517,-0.21156 5.17427,0.47147 z"
       id="path32" /><path
       style="fill:#005544;fill-opacity:1;stroke-width:1.3183;-inkscape-stroke:none"
       d="m 753.25691,278.63692 c -0.91372,3.19157 1.30382,4.75112 4.01974,5.77938 3.28693,1.24441 7.18241,0.46114 11.88368,-0.46347 4.70132,-0.92463 7.39531,-2.69633 9.37936,-2.93332 1.98408,-0.237 2.61394,0.0412 1.36012,-0.39938 -1.2538,-0.44058 -4.2467,-2.95832 -5.56661,-4.08143 -1.31994,-1.12311 -4.88261,-3.50844 -7.26381,-4.2554 -2.20203,-0.69077 -6.53531,-1.46295 -9.26163,0.72527 -2.7263,2.18819 -3.83731,3.49343 -4.55085,5.62835 z"
       id="path33" /><path
       style="fill:#502d16;fill-opacity:1;stroke-width:3.77953;-inkscape-stroke:none"
       d="m 241.08425,684.17944 c 0,0 10.30522,-1.51845 16.35365,-1.51845 6.04843,0 9.93671,5.18437 13.39296,5.6164 3.45624,0.43203 11.88402,-1.1899 12.09369,-2.33911 0.10868,-0.59572 -11.70891,-7.41718 -13.62751,-11.6463 -2.38771,-5.26318 -1.43798,-9.39667 -1.43798,-13.28495 0,-3.88827 4.75234,-28.94606 5.18437,-31.10621 0.43203,-2.16015 3.02421,-28.33508 4.55167,-44.19368 1.49113,-15.48145 0.95006,-44.92917 1.08008,-52.27572 0.34553,-19.52503 -3.03957,-31.62772 -6.71183,-44.15661 -2.05889,-7.02443 -6.27779,-14.66556 -11.45644,-21.96538 -4.3014,-6.06325 -10.49403,-10.92987 -15.97751,-13.24512 -9.72069,-4.1043 -17.58639,-6.46171 -28.51403,-3.88828 -8.59593,2.02432 -16.84919,4.10429 -22.68161,13.60897 -5.16257,8.41306 -7.78113,15.22984 -7.34453,25.48981 0.43203,10.15272 8.85664,26.35388 14.90507,33.26637 6.04843,6.91249 25.05778,17.49725 31.97027,21.38552 7.03449,3.9569 11.44881,3.45625 13.60897,5.18437 2.16015,1.72812 -1.51211,-1.51211 -0.21602,-9.28866 1.2961,-7.77656 8.3255,-11.89553 0.64805,-10.58475 -8.85663,1.5121 -22.68162,-1.29609 -28.94607,-4.96836 -5.79803,-3.39885 -12.96091,-8.85663 -16.84919,-16.63318 -3.88828,-7.77655 -5.40039,-11.01678 -5.83242,-21.38552 -0.43203,-10.36873 5.60932,-21.73916 11.2328,-24.84177 6.26445,-3.45624 10.58475,-6.04843 21.38553,-4.53632 11.28763,1.6817 21.3643,9.48167 27.86598,18.79334 4.53371,7.41881 7.38584,18.31315 9.50467,29.37809 1.94415,10.15271 2.16016,29.16207 2.16016,39.53081 0,10.36873 0.43203,31.50491 -0.43203,40.14552 -0.86406,8.64062 -3.07664,39.0797 -4.80476,50.79695 -1.59595,10.82109 -2.69701,21.60154 -5.28919,26.78591 -2.59219,5.18436 -3.35142,6.96491 -7.67173,11.71724 -4.32031,4.75234 -8.14507,10.15907 -8.14507,10.15907 z"
       id="path34" /><path
       style="fill:#502d16;fill-opacity:1;stroke-width:3.77953;-inkscape-stroke:none"
       d="m 295.58348,538.81043 c 0,0 1.94291,4.87737 1.40231,9.84124 -0.56226,5.1628 -3.56382,10.41917 -1.13132,10.37888 4.77128,-0.079 28.63247,-2.82778 37.83796,-2.08051 9.68507,-0.45338 31.48017,3.79081 34.50818,1.423 1.9062,-1.49059 2.60105,-7.81571 0.26835,-9.30273 -7.29455,-4.6501 -6.09049,-0.66335 -38.7862,-2.17478 -22.61036,-1.04521 -31.32361,-10.5565 -34.09928,-8.0851 z"
       id="path35" /><path
       style="fill:#502d16;fill-opacity:1;stroke-width:3.77953;-inkscape-stroke:none"
       d="m 515.0716,606.15962 c -1.1841,-1.27526 -8.88151,1.17698 -14.90939,1.67516 -6.02787,0.49818 -9.4659,-1.32408 -12.94599,-1.46997 -3.48008,-0.14589 -11.74563,2.16469 -11.85993,3.32727 -0.0592,0.60264 12.28004,6.42756 14.54046,10.48428 2.8131,5.04863 2.20706,9.2463 2.52732,13.12137 0.32026,3.87506 -1.46573,21.11117 -1.97474,31.74249 -0.33111,6.91567 -0.71612,27.57905 -0.93219,43.50958 -0.21091,15.55166 2.15992,45.44865 2.63545,52.78094 1.26384,19.48715 5.70321,39.46932 9.02994,52.09435 2.19843,8.34309 7.37927,22.58243 13.65873,30.01978 5.79907,6.86837 11.35862,10.02838 17.01417,11.88411 10.02572,3.28971 18.05886,4.99124 28.7374,1.52649 8.39999,-2.72545 18.32556,-12.35129 23.3553,-22.30406 4.45208,-8.8097 5.49266,-26.65912 4.21247,-36.84826 -1.26679,-10.08264 -10.99721,-25.53485 -17.59443,-31.92567 -6.59723,-6.39082 -26.41382,-15.37389 -33.62308,-18.67959 -7.33651,-3.36405 -11.69459,-2.50152 -13.98975,-4.04584 -2.29514,-1.54433 1.63153,1.38242 0.98036,9.2393 -0.65118,7.85689 -7.31743,12.54085 0.22597,10.60217 8.702,-2.23645 22.71131,-0.5765 29.25695,2.56731 6.05827,2.90974 13.64635,7.759 18.16194,15.18886 4.51559,7.42986 8.70361,16.87224 8.49052,27.24779 -0.24287,11.82538 -1.96064,21.39775 -5.73569,26.59377 -4.43103,6.09892 -14.31024,14.31144 -26.13259,14.07689 -12.79554,-0.25386 -22.12699,-5.71116 -29.84298,-19.02871 -5.12937,-8.85312 -9.28356,-26.68228 -12.30657,-37.5351 -2.77378,-9.95808 -4.27999,-32.6775 -5.13403,-43.01101 -0.85402,-10.3335 -2.75786,-31.47673 -2.60843,-40.15914 0.14944,-8.68243 1.10719,-38.78039 1.86433,-50.60017 0.69924,-10.91577 0.69639,-21.75427 1.843,-27.43603 1.2399,-6.14398 0.96412,-7.34383 4.87831,-12.43586 3.9142,-5.09204 9.75634,-10.50176 8.17717,-12.2025 z"
       id="path37" /><text
       xml:space="preserve"
       style="font-style:normal;font-variant:normal;font-weight:bold;font-stretch:normal;font-size:96px;font-family:Luminari;-inkscape-font-specification:'Luminari Bold';fill:#502d16;fill-opacity:1;stroke-width:30.2362;-inkscape-stroke:none"
       x="418.68115"
       y="585.56982"
       id="text37"><tspan
         id="tspan37"
         x="418.68115"
         y="585.56982"
         style="font-style:normal;font-variant:normal;font-weight:bold;font-stretch:normal;font-family:Luminari;-inkscape-font-specification:'Luminari Bold';fill:#502d16;fill-opacity:1;stroke-width:30.2362">ARMONY</tspan></text><text
       xml:space="preserve"
       style="font-style:normal;font-variant:normal;font-weight:bold;font-stretch:normal;font-size:96px;font-family:Luminari;-inkscape-font-specification:'Luminari Bold';fill:#502d16;fill-opacity:1;stroke-width:30.2362;-inkscape-stroke:none"
       x="517.85474"
       y="731.98389"
       id="text38"><tspan
         id="tspan38"
         x="517.85474"
         y="731.98389"
         style="font-style:normal;font-variant:normal;font-weight:bold;font-stretch:normal;font-family:Luminari;-inkscape-font-specification:'Luminari Bold';fill:#502d16;fill-opacity:1;stroke-width:30.2362">ILL  </tspan></text><path
       style="fill:#502d16;fill-opacity:1;stroke-width:3.42345;-inkscape-stroke:none"
       d="m 481.43651,758.83687 c 0,0 -1.72056,-4.81309 -1.40681,-9.79165 0.32631,-5.17807 2.65048,-10.52727 0.65681,-10.40961 -3.91054,0.23075 -23.40571,3.73726 -30.974,3.28324 -7.93023,0.76127 -27.59344,-0.79264 -28.33492,-0.32443 -1.83839,1.16087 -0.0528,8.36857 0.0228,10.77636 0.11892,3.78576 5.0117,-1.00056 31.86264,-0.53008 18.56849,0.32535 25.96188,9.55462 28.17351,6.99617 z"
       id="path38" /><text
       xml:space="preserve"
       style="font-style:normal;font-variant:normal;font-weight:bold;font-stretch:normal;font-family:Noteworthy;-inkscape-font-specification:'Noteworthy Bold';fill:#005544;fill-opacity:1;stroke-width:3.77953;-inkscape-stroke:none"
       x="637.67737"
       y="653.23047"
       id="text41"><tspan
         id="tspan41"
         x="637.67737"
         y="653.23047"> </tspan></text><text
       xml:space="preserve"
       style="font-style:normal;font-variant:normal;font-weight:normal;font-stretch:normal;font-family:'Bangla MN';-inkscape-font-specification:'Bangla MN';fill:#005544;fill-opacity:1;stroke-width:3.77953;-inkscape-stroke:none"
       x="921.08954"
       y="986.75824"
       id="text42"><tspan
         id="tspan42"
         x="921.08954"
         y="986.75824">  </tspan></text></g></svg>
